<svg width="275" height="388" viewBox="0 0 275 388" fill="none" xmlns="http://www.w3.org/2000/svg">
<path d="M206.807 368.48C217.237 359.421 225.302 348.838 231.825 337.289C240.673 321.623 245.711 304.706 246.133 286.481C246.31 278.812 245.046 271.411 244.308 263.883C243.603 256.697 242.051 250.021 239.183 243.568C232.271 228.019 222.851 214.849 208.854 204.246C195.401 194.056 180.149 188.55 165.139 182.075C157.482 178.772 151.176 173.716 146.206 167.282C139.048 158.017 135.488 147.319 136.062 135.473C136.132 134.025 135.235 133.024 135.098 131.356C135.97 129.565 135.105 128.115 135.238 126.393C136.778 122.079 134.386 117.541 137.671 113.25C133.338 114.529 132.46 118.008 130.314 120.222C122.582 128.199 114.842 136.172 107.238 144.271C92.045 160.455 76.3428 176.122 63.0455 194.076C52.9648 207.687 44.2588 221.753 37.2336 237.236C31.5441 249.775 29.5857 262.631 27.8573 275.909C26.2979 287.888 28.1686 299.426 31.098 310.778C35.2311 326.795 42.3619 341.398 53.3767 354.067C58.4812 359.938 63.7995 365.487 69.6494 370.637C58.5983 366.694 48.5299 361.167 39.7413 353.283C32.2022 346.519 25.5053 338.786 19.9737 330.6C16.1487 324.94 12.2693 318.763 9.71197 311.938C7.80247 306.842 7.07449 301.279 4.20636 296.535C2.36626 293.492 2.92042 289.923 2.10525 286.7C0.0195448 278.453 0.565938 269.968 0.401647 261.73C0.228841 253.066 0.882322 244.087 3.01318 235.444C6.15654 222.696 9.71659 210.097 15.73 198.335C25.0654 180.074 35.6352 162.695 49.7502 147.579C55.0091 141.946 60.2314 136.184 65.0836 130.215C75.3352 117.603 87.2962 106.623 97.9846 94.4585C107.933 83.1362 116.977 70.9503 121.613 56.5357C125.71 43.7989 127.554 30.5096 122.201 17.302C120.876 14.0334 120.621 10.3107 118.656 7.26539C117.215 5.03213 118.616 3.4275 119.711 1.9362C120.878 0.3451 122.529 1.02725 124.199 1.57157C132.779 4.36881 139.476 10.025 146.198 15.6927C154.889 23.0213 162.149 31.8591 167.962 41.3162C174.693 52.2668 179.842 64.3103 182.018 77.3279C185.318 97.0765 181.623 116.05 176.647 135.043C175.142 140.789 175.224 147.125 177.112 152.955C178.777 158.093 181.878 162.365 187.892 162.973C193.9 163.58 198.417 160.762 201.98 156.162C206.139 150.795 206.78 144.242 207.965 137.909C208.905 132.884 211.46 131.667 215.777 134.248C225.629 140.137 232.717 148.932 239.745 157.611C247.593 167.304 253.926 178.283 259.208 189.407C265.565 202.792 269.428 217.344 272.082 232.114C273.86 242.004 274.619 252.058 274.587 261.907C274.52 282.538 270.839 302.855 260.82 321.184C249.137 342.558 234.241 361.137 210.491 370.998C208.755 371.37 207.335 372.691 206.021 371.764C204.734 370.856 205.974 369.73 206.807 368.48Z" fill="#FF9A22"/>
<path d="M129.292 386.228C122.725 387.255 116.998 384.636 111.221 383.332C92.5404 379.117 77.4704 368.583 63.8986 355.396C58.4667 350.118 55.2922 343.484 50.892 337.636C46.587 331.915 45.0581 325.253 42.2872 319.007C37.5153 308.25 37.5125 296.783 37.2399 285.428C36.944 273.105 38.7337 260.546 43.7773 249.647C49.0001 238.362 55.7331 227.397 64.7809 218.217C72.2147 210.675 80.0494 203.375 89.3737 198.773C97.2465 194.888 105.876 191.947 114.676 190.075C132.167 186.353 149.299 187.816 166.423 192.643C178.953 196.176 190.46 201.428 200.525 209.688C213.687 220.489 224.26 233.516 230.565 249.289C236.672 264.569 239.283 280.513 237.31 297.302C235.039 316.635 228.265 333.818 216.23 348.886C200.713 368.312 180.829 380.732 156.102 384.953C150.588 385.895 145.1 386.989 139.578 387.877C138.706 388.017 137.718 387.433 136.444 387.153C134.041 386.037 131.738 387.232 129.292 386.228Z" fill="#713D17"/>
<path d="M206.72 368.18C205.963 370.762 206.833 371.67 209.816 371.035C206.241 372.935 202.355 374.843 198.469 376.751C198.239 376.514 198.009 376.276 197.779 376.039C200.645 373.421 203.51 370.802 206.72 368.18Z" fill="#F88B0B"/>
<path d="M129.026 386.34C131.134 386.037 133.358 385.74 135.785 386.882C133.765 387.096 131.347 388.29 129.026 386.34Z" fill="#BF5E04"/>
<path d="M135.019 126.379C136.101 127.466 136.088 128.912 135.33 130.682C135.461 129.503 133.888 128.176 135.019 126.379Z" fill="#FEB32A"/>
<path d="M132.432 379.232C124.003 378.642 116.109 377.013 108.558 374.705C103.343 373.11 98.0193 371.015 93.2439 367.977C68.2328 352.064 51.5592 330.419 46.6458 300.617C46.5927 300.295 46.427 299.991 46.1327 299.339C45.0622 297.026 45.6605 294.951 45.6821 292.507C45.8649 288.346 45.9076 284.603 45.9044 280.395C45.2007 278.245 45.5832 276.5 45.7538 274.39C48.3998 264.762 50.5217 255.463 54.8797 246.795C68.0875 220.524 89.2823 204.537 117.502 197.396C119.411 196.913 121.4 196.746 123.734 196.335C125.517 196.73 126.958 196.44 128.657 196.311C139.275 194.329 149.218 196.168 159.317 198.585C185.738 204.907 205.041 220.352 218.666 243.393C223.778 252.039 226.578 261.601 228.957 271.695C229.708 273.037 229.45 274.114 229.319 275.534C229.398 277.062 229.614 278.215 229.797 279.725C230.156 283.94 229.901 287.816 230.122 292.065C230.246 292.699 230.307 292.95 230.238 293.566C229.8 295.086 229.492 296.24 229.202 297.751C229.637 299.143 229.481 300.218 229.253 301.637C226.917 308.376 225.748 315.04 223.111 321.305C212.959 345.426 195.668 362.19 171.646 372.357C162.671 376.155 153.177 377.203 143.364 378.904C139.634 379.983 136.226 379.334 132.432 379.232Z" fill="#FD9A1E"/>
<path d="M230.119 292.626C228.367 288.971 228.908 284.883 229.587 280.438C229.815 280.242 229.867 280.402 230.004 280.802C230.945 284.759 230.36 288.519 230.119 292.626Z" fill="#FEB32A"/>
<path d="M229.907 293.223C229.881 289.312 229.939 285.632 230.043 281.496C231.737 285.055 231.125 289.151 230.316 293.589C230.107 293.932 229.992 293.454 229.907 293.223Z" fill="#4E2415"/>
<path d="M132.338 379.265C135.367 378.997 138.718 378.969 142.524 378.987C139.609 380.724 136.139 380.208 132.338 379.265Z" fill="#4E2415"/>
<path d="M45.6403 292.401C45.8779 294.105 45.9336 296.12 45.9704 298.567C44.5935 296.998 44.8442 294.869 45.6403 292.401Z" fill="#4E2415"/>
<path d="M45.7489 274.291C45.9495 275.698 45.9493 277.393 45.9039 279.509C44.6981 278.208 44.8053 276.413 45.7489 274.291Z" fill="#4E2415"/>
<path d="M128.534 196.093C127.588 197.145 126.158 197.199 124.39 196.405C125.456 196.164 126.797 196.089 128.534 196.093Z" fill="#FEB32A"/>
<path d="M229.354 275.659C229.136 274.881 229.089 273.854 229.074 272.442C230.034 273.076 230.109 274.201 229.354 275.659Z" fill="#4E2415"/>
<path d="M229.251 301.752C229.071 300.952 229.082 299.915 229.155 298.493C229.98 299.199 230.153 300.328 229.251 301.752Z" fill="#4E2415"/>
<path d="M132.432 369.732C110.086 367.636 91.0322 359.197 76.0764 342.61C62.9326 328.033 55.6235 311.077 54.8281 291.177C54.0244 271.065 58.897 252.952 71.2957 237.018C84.6243 219.89 101.705 208.94 123.406 205.707C124.062 205.609 124.7 205.393 125.744 205.193C127.465 205.787 128.86 205.416 130.539 205.303C135.308 203.563 139.789 204.47 144.696 205.077C146.134 205.766 147.241 205.425 148.598 205.294C165.523 207.714 180.439 214.064 193.111 225.327C208.513 239.017 217.435 256.007 220.173 276.519C223.177 299.032 217.433 319.125 203.916 336.902C190.05 355.14 171.595 366.103 148.617 368.961C146.978 369.165 145.368 369.607 143.327 369.923C139.56 369.06 136.159 369.654 132.432 369.732Z" fill="#BF5E04"/>
<path d="M132.532 369.939C135.413 368.366 138.829 368.853 142.581 369.697C139.6 369.928 136.291 369.948 132.532 369.939Z" fill="#AB4301"/>
<path d="M130.46 205.114C129.525 206.092 128.126 206.193 126.401 205.338C127.451 205.128 128.761 205.101 130.46 205.114Z" fill="#AB4301"/>
<path d="M148.51 205.095C147.868 205.999 146.77 206.104 145.36 205.309C146.128 205.105 147.131 205.079 148.51 205.095Z" fill="#AB4301"/>
<path d="M145.447 209.125C181.407 214.357 204.89 233.864 214.268 268.659C225.63 310.814 196.824 355.755 153.946 363.999C150.219 364.716 146.457 365.257 142.297 365.87C139.194 365.104 136.456 365.641 133.409 365.72C112.441 363.972 94.7618 355.831 80.3605 340.816C69.2302 329.211 62.3521 315.501 59.9864 299.558C59.7923 298.25 59.3782 296.975 59.0049 294.91C59.0591 289.301 58.9861 284.465 58.9235 278.869C60.9495 267.15 63.7414 256.442 69.7836 246.861C83.2374 225.529 102.146 212.582 127.776 209.283C133.788 208.84 139.409 208.997 145.447 209.125Z" fill="#FEB32A"/>
<path d="M145.863 209.092C140.234 210.608 134.553 209.985 128.526 209.412C128.173 209.232 128.635 209.06 128.859 208.958C134.41 208.081 139.762 208.655 145.545 208.709C145.99 208.87 145.861 209.001 145.863 209.092Z" fill="#FADE3B"/>
<path d="M145.629 208.679C140.661 208.894 135.332 208.918 129.543 208.899C134.447 207.373 139.858 207.952 145.629 208.679Z" fill="#AB4301"/>
<path d="M58.9527 294.892C57.3281 289.566 57.9038 284.186 58.6635 278.457C58.8623 278.109 59.0629 278.112 59.1498 278.062C59.8085 283.36 59.3866 288.723 59.3414 294.535C59.2192 294.993 59.0511 294.89 58.9527 294.892Z" fill="#AB4301"/>
<path d="M133.517 365.923C135.733 364.478 138.481 364.79 141.565 365.656C139.241 365.893 136.599 365.925 133.517 365.923Z" fill="#FADE3B"/>
<path d="M120.701 233.521C123.724 224.641 128.805 218.698 138.262 217.553C148.901 216.265 159.238 225.381 160.005 236.827C160.627 246.114 151.473 255.628 141.548 256.01C130.908 256.42 125.825 252.86 120.908 241.276C120.203 238.61 120.595 236.263 120.701 233.521Z" fill="#CD3803"/>
<path d="M154.243 334.536C148.023 346.824 140.447 351.299 129.544 348.848C122.385 347.238 117.621 342.58 115.202 335.242C115.125 332.521 114.862 330.163 115.106 327.441C118.976 315.947 125.036 310.981 134.817 310.969C144.128 310.957 151.047 316.314 153.742 325.726C155.026 328.655 154.302 331.414 154.243 334.536Z" fill="#CD3803"/>
<path d="M180.512 292.339C189.771 294.103 194.539 300.088 197.008 309.107C196.952 311.03 197.003 312.298 197.133 314.191C195.26 319.317 194.011 324.215 189.698 327.355C177.149 336.492 161.855 330.462 158.207 314.246C158.838 312.424 158.267 310.847 158.788 309.018C159.342 300.621 164.052 295.593 174.745 292.188C176.824 291.938 178.525 291.858 180.512 292.339Z" fill="#CD3802"/>
<path d="M94.2207 289.894C102.462 292.206 107.501 296.795 110.171 304.643C113.417 314.187 105.551 325.367 96.7084 327.883C84.3426 331.401 74.3048 322.672 72.931 312.644C72.1448 310.851 72.6697 309.284 72.3085 307.449C73.5702 298.115 79.1683 292.901 88.1211 290.005C90.3753 290.056 91.9613 289.992 94.2207 289.894Z" fill="#CD3802"/>
<path d="M73.7828 257.376C75.9743 248.609 81.5504 243.725 90.1069 240.993C92.3576 241.056 93.9353 240.995 96.1807 240.874C99.5427 242.342 102.726 242.802 105.276 244.771C111.171 249.324 113.857 255.302 112.819 262.585C111.722 270.276 107.017 275.282 99.7849 277.965C99.0244 278.247 98.2763 278.563 96.8603 278.978C94.6215 278.942 93.0418 279.007 90.7928 279.12C82.8939 276.847 77.082 272.855 74.0466 265.131C73.2035 262.512 73.5833 260.131 73.7828 257.376Z" fill="#CC3602"/>
<path d="M180.403 282.229C171.299 281.021 167.721 274.765 164.983 266.9C165.049 264.974 164.997 263.699 164.87 261.797C167.352 254.465 170.357 248.133 178.477 245.974C181.448 244.5 184.283 245.096 187.465 245.142C195.909 247.255 200.384 252.769 202.763 260.752C202.966 263.313 203.351 265.53 202.265 268.04C201.119 274.963 196.065 280.201 188.565 282.024C185.799 283.231 183.335 283.276 180.403 282.229Z" fill="#CD3802"/>
<path d="M115.394 286.958C114.122 286.534 113.036 286.129 113.209 284.923C115.09 271.875 124.537 262.368 138.625 265.852C139.891 267.027 139.312 268.279 139.753 269.688C138.256 279.195 132.473 284.416 123.306 286.783C120.556 286.772 118.161 287.173 115.394 286.958Z" fill="#7B810A"/>
<path d="M161.063 285.134C160.863 288.127 161.737 291.724 158.926 292.612C156.035 293.526 153.251 291.063 151.421 288.767C147.773 284.189 146.192 279.008 147.849 273.05C148.518 270.643 149.579 270 151.631 271.209C156.808 274.26 160.865 278.142 161.063 285.134Z" fill="#757F09"/>
<path d="M168.505 345.548C165.98 347.619 162.809 349.733 161.094 346.683C159.466 343.788 162.667 341.438 165.341 340.02C166.954 339.165 169.198 338.421 170.356 340.088C171.629 341.92 169.78 343.664 168.505 345.548Z" fill="#7B810A"/>
<path d="M64.6874 279.482C65.3801 278.148 65.9295 277.216 66.7791 276.157C68.6898 275.36 68.7524 276.727 69.3722 277.864C70.477 278.767 71.5928 278.309 72.7808 278.873C73.7529 281.534 74.0126 283.976 71.6667 285.702C69.235 287.49 67.3878 285.892 65.3354 284.147C64.0742 282.725 64.6456 281.264 64.6874 279.482Z" fill="#C9350F"/>
<path d="M107.226 334.629C108.246 335.994 108.198 337.11 107.665 338.231C106.491 340.704 104.672 342.323 101.792 341.857C100.226 341.604 98.8571 340.461 99.1619 338.741C99.6692 335.878 101.331 333.889 104.536 333.873C105.34 333.868 106.145 334.171 107.226 334.629Z" fill="#757F09"/>
<path d="M125.757 301.866C123.695 298.645 123.695 298.64 126.846 298.594C128.279 298.573 128.579 297.304 129.283 296.457C130.028 295.56 130.877 294.578 132.128 295.648C133.136 296.511 133.182 297.731 132.537 298.792C131.085 301.182 129.224 302.919 125.757 301.866Z" fill="#C9350F"/>
<path d="M104.315 227.071C106.071 225.792 107.723 225.277 108.813 227.012C109.665 228.368 108.893 229.859 107.78 230.97C106.516 232.234 104.945 234.127 103.261 232.988C100.41 231.058 102.912 229.119 104.315 227.071Z" fill="#757F09"/>
<path d="M204.514 295.451C198.497 292.079 198.731 290.466 205.85 286.406C205.412 289.103 203.446 291.793 206.25 294.01C205.772 294.455 205.294 294.899 204.514 295.451Z" fill="#C9350F"/>
<path d="M171.136 231.966C173.416 232.486 174.706 233.619 174.852 235.659C174.925 236.677 174.085 236.957 173.196 236.976C171.428 237.014 169.919 236.314 169.068 234.831C168.105 233.153 168.672 232.01 171.136 231.966Z" fill="#757F09"/>
<path d="M144.884 296.359C144.488 299.321 142.698 300.35 139.399 301.137C141.046 298.335 140.589 294.855 144.884 296.359Z" fill="#757F09"/>
<path d="M59.3823 294.619C59.1853 289.641 59.1514 284.29 59.1771 278.476C60.5044 283.401 60.0667 288.823 59.3823 294.619Z" fill="#FADE3B"/>
<path d="M187.849 245.108C185.262 246.559 182.44 245.702 179.28 245.97C179.061 245.686 179.283 245.4 179.762 245C182.367 244.114 184.776 244.632 187.574 244.719C187.992 244.887 187.819 245.007 187.849 245.108Z" fill="#B00901"/>
<path d="M154.26 334.629C154.027 332.266 154.008 329.582 153.978 326.449C155.595 328.68 155.156 331.486 154.26 334.629Z" fill="#FADE3B"/>
<path d="M180.077 282.262C182.415 282.014 184.847 282.022 187.738 282.033C187.96 282.325 187.721 282.615 187.216 283.017C185.289 283.813 183.56 283.404 181.46 283.293C180.764 282.929 180.467 282.723 180.077 282.262Z" fill="#B00901"/>
<path d="M120.658 233.419C120.869 235.424 120.881 237.739 120.847 240.488C119.583 238.576 119.825 236.161 120.658 233.419Z" fill="#FADE3B"/>
<path d="M187.672 244.687C185.629 244.925 183.265 244.963 180.46 244.943C182.397 243.528 184.865 243.839 187.672 244.687Z" fill="#FADE3B"/>
<path d="M115.045 287.014C117.381 285.529 119.836 285.794 122.637 286.696C122.778 286.956 122.6 287.021 122.148 287.164C119.896 287.738 117.888 287.424 115.478 287.35C115.064 287.235 115.061 287.086 115.045 287.014Z" fill="#757F09"/>
<path d="M115.058 327.128C116.484 329.407 116.089 331.835 115.392 334.576C115.19 334.884 115.027 334.432 114.948 334.205C114.154 331.963 114.614 329.886 114.698 327.421C114.85 327.004 114.966 327.17 115.058 327.128Z" fill="#B00901"/>
<path d="M72.7624 278.865C71.8266 278.888 70.653 278.72 69.3629 279.831C68.0882 278.67 68.6224 277.187 68.7521 275.396C69.9769 276.393 70.8083 277.952 72.7624 278.865Z" fill="#FADE3B"/>
<path d="M73.7652 257.285C73.9671 259.325 73.9292 261.66 73.8482 264.427C72.5488 262.478 72.7435 260.04 73.7652 257.285Z" fill="#FADE3B"/>
<path d="M114.653 327.314C114.899 329.04 114.948 331.075 114.933 333.544C113.535 331.938 113.788 329.794 114.653 327.314Z" fill="#FADE3B"/>
<path d="M96.8295 279.11C94.8775 280.375 92.8126 280.218 90.4212 279.404C90.123 279.214 90.1839 279.009 90.0875 278.963C92.0057 278.103 94.1006 278.635 96.5746 278.711C96.9907 278.872 96.7962 278.999 96.8295 279.11Z" fill="#FADE3B"/>
<path d="M90.1505 240.886C92.095 239.585 94.1585 239.776 96.5491 240.591C96.8488 240.775 96.7845 241 96.8879 241.054C94.97 241.866 92.8808 241.382 90.4126 241.27C90.0034 241.093 90.1833 240.985 90.1505 240.886Z" fill="#FADE3B"/>
<path d="M202.328 268.32C202.18 266.196 202.298 263.988 202.622 261.444C202.83 261.11 203.025 261.182 203.085 261.096C203.829 263.034 203.399 265.113 203.267 267.575C202.923 268.067 202.758 268.151 202.328 268.32Z" fill="#B00901"/>
<path d="M88.1572 289.893C90.1243 288.683 92.1965 288.849 94.5937 289.625C94.8948 289.811 94.8258 290.01 94.9165 290.064C92.9828 290.859 90.893 290.383 88.4183 290.284C88.0041 290.119 88.1905 289.999 88.1572 289.893Z" fill="#FADE3B"/>
<path d="M115.377 287.397C117.052 287.207 119.04 287.179 121.452 287.197C119.861 288.28 117.786 288.133 115.377 287.397Z" fill="#FADE3B"/>
<path d="M203.289 267.675C203.066 265.946 203.045 263.91 203.083 261.442C204.381 263.068 204.275 265.2 203.289 267.675Z" fill="#FADE3B"/>
<path d="M197.12 309.176C198.264 310.783 198.179 312.497 197.4 314.531C197.235 314.816 197.007 314.764 196.939 314.859C196.187 313.279 196.593 311.536 196.721 309.421C196.891 309.023 197.014 309.208 197.12 309.176Z" fill="#FADE3B"/>
<path d="M164.878 266.839C163.777 265.218 163.837 263.497 164.602 261.455C164.769 261.168 165.009 261.223 165.076 261.12C165.798 262.712 165.414 264.467 165.272 266.599C165.097 266.999 164.984 266.809 164.878 266.839Z" fill="#FADE3B"/>
<path d="M68.6644 275.016C68.9767 276.394 68.9922 277.773 69.024 279.564C68.5326 278.818 68.0247 277.659 67.298 276.265C67.5087 275.691 67.9381 275.353 68.6644 275.016Z" fill="#B00901"/>
<path d="M181.343 283.341C182.745 283.091 184.43 283.046 186.532 283.066C185.26 284.364 183.465 284.236 181.343 283.341Z" fill="#FADE3B"/>
<path d="M180.602 292.183C179.151 293.177 177.428 293.141 175.395 292.359C175.115 292.176 175.193 291.974 175.097 291.924C176.349 291.234 177.771 291.571 179.553 291.722C179.941 291.892 180.379 292.093 180.602 292.183Z" fill="#B00901"/>
<path d="M64.6393 279.354C64.8725 280.448 64.9142 281.817 64.9944 283.595C63.8372 282.679 63.8399 281.194 64.6393 279.354Z" fill="#FADE3B"/>
<path d="M179.675 291.694C178.567 291.922 177.193 291.951 175.411 291.927C176.397 290.883 177.871 290.818 179.675 291.694Z" fill="#FADE3B"/>
<path d="M72.1149 307.487C73.1756 308.427 72.9461 309.978 72.9524 311.878C71.4724 311.045 72.238 309.365 72.1149 307.487Z" fill="#B00901"/>
<path d="M158.664 308.947C158.818 310.195 158.691 311.718 158.364 313.558C158.237 312.323 158.31 310.773 158.664 308.947Z" fill="#B00901"/>
<path d="M140.006 269.612C139.139 269.038 138.995 267.902 138.999 266.37C140.593 266.684 139.946 268.09 140.006 269.612Z" fill="#757F09"/>
<path d="M146.988 250.281C137.218 253.944 129.373 250.775 126.214 242.218C123.405 234.609 127.313 225.515 134.584 222.74C141.573 220.072 149.576 222.78 152.763 228.889C157.136 237.272 155.213 244.758 146.988 250.281Z" fill="#E14C22"/>
<path d="M130.153 343.831C122.561 342.211 119.786 338.123 119.99 329.232C120.149 322.275 124.958 316.66 131.984 315.228C138.681 313.863 145.204 317.227 147.997 323.486C151.517 331.377 148.917 339.395 141.354 342.95C137.869 345.756 134.273 345.291 130.304 344.219C129.983 343.985 130.283 343.644 130.153 343.831Z" fill="#E14C22"/>
<path d="M183.82 324.813C178.436 328.395 172.045 327.564 167.282 322.825C162.451 318.019 161.474 309.5 165.057 303.438C168.312 297.933 175.098 294.907 180.778 296.427C187.644 298.264 191.652 303.578 192.088 310.485C192.495 316.919 190.669 321.897 184.339 324.95C183.813 324.819 183.629 324.632 183.444 324.446C183.259 324.26 183.322 324.321 183.82 324.813Z" fill="#E14C22"/>
<path d="M196.684 309.306C196.921 310.72 196.951 312.418 196.927 314.535C195.749 313.239 195.819 311.436 196.684 309.306Z" fill="#B00901"/>
<path d="M81.2281 318.779C75.7569 314.88 75.2874 304.42 81.2886 298.383C86.6379 293.001 96.4595 293.154 102.082 298.612C107.637 304.006 107.487 313.889 101.76 319.805C96.1454 325.605 87.583 325.522 81.1603 319.303C81.5935 318.422 82.1523 317.802 82.8168 317.295C82.3248 317.672 81.8907 318.113 81.2281 318.779Z" fill="#E14D22"/>
<path d="M88.3115 290.318C90.0473 290.092 92.0905 290.065 94.5704 290.077C92.9444 291.318 90.7934 291.104 88.3115 290.318Z" fill="#B00901"/>
<path d="M83.1993 269.811C78.4432 266.097 77.0926 259.965 79.5415 254.285C81.7805 249.092 88.8909 244.773 94.5019 245.199C101.321 245.716 107.046 250.68 108.608 257.429C109.799 262.577 106.528 269.259 101.571 272.266C95.7789 275.779 88.2812 275.863 83.1558 270.302C83.1885 269.801 83.3876 269.607 83.5858 269.411C83.7847 269.215 83.7208 269.282 83.1993 269.811Z" fill="#E14C22"/>
<path d="M90.3032 241.306C92.043 241.07 94.0826 241.046 96.5567 241.066C94.936 242.402 92.7794 242.115 90.3032 241.306Z" fill="#B00901"/>
<path d="M96.6848 278.669C94.9493 278.905 92.9078 278.938 90.4288 278.944C92.0368 277.585 94.1978 277.884 96.6848 278.669Z" fill="#B00901"/>
<path d="M197.885 268.31C194.601 276.077 188.461 279.827 181.846 278.476C174.494 276.974 170.114 271.887 169.975 264.691C169.823 256.747 174.004 251.147 181.403 249.386C188.992 247.579 197.388 253.898 197.97 261.927C198.114 263.908 197.964 265.909 197.885 268.31Z" fill="#E14C22"/>
<path d="M165.303 266.713C165.073 265.287 165.049 263.575 165.084 261.44C166.246 262.753 166.162 264.57 165.303 266.713Z" fill="#B00901"/>
<path d="M132.063 272.617C130.529 275.528 127.986 277.222 124.286 279.053C126.583 275.625 128.908 273.671 132.063 272.617Z" fill="#FEB32A"/>
<path d="M156.011 284.77C155 284.293 154.522 283.298 154.218 281.623C155.624 282.417 155.93 283.404 156.011 284.77Z" fill="#FEB32A"/>
<path d="M155.897 285.09C155.879 285.106 156.236 285.061 156.236 285.061C156.236 285.061 156.1 285.125 156.019 285.081C155.938 285.038 155.914 285.074 155.897 285.09Z" fill="#FEB32A"/>
<path d="M129.621 235.529C132.034 235.26 132.997 236.235 132.425 238.302C132.146 239.313 131.14 239.974 130.147 239.503C128.386 238.666 127.856 237.324 129.621 235.529Z" fill="#CC3605"/>
<path d="M134.248 228.433C134.186 230.752 132.913 231.1 131.284 230.58C130.384 230.292 130.111 229.397 130.571 228.603C131.503 226.991 132.747 226.826 134.248 228.433Z" fill="#CC3605"/>
<path d="M148.627 243.34C150.209 244.731 149.76 245.776 148.305 246.36C147.519 246.675 146.713 246.118 146.496 245.244C146.126 243.752 146.974 243.234 148.627 243.34Z" fill="#CC3605"/>
<path d="M134.126 244.06C134.887 245.57 134.655 246.514 133.148 246.743C132.244 246.881 131.432 246.381 131.426 245.508C131.415 243.916 132.226 243.128 134.126 244.06Z" fill="#CC3602"/>
<path d="M138.855 249.296C138.071 247.473 138.645 246.509 140.335 246.6C141.143 246.643 141.746 247.442 141.605 248.348C141.364 249.897 140.302 249.927 138.855 249.296Z" fill="#CC3602"/>
<path d="M152.269 238.225C150.809 238.885 149.619 239.071 149.695 237.201C149.73 236.35 150.297 235.505 151.236 235.518C153.036 235.543 152.844 236.77 152.269 238.225Z" fill="#CC3605"/>
<path d="M148.404 230.459C146.284 230.577 145.886 229.524 146.518 228.081C146.863 227.293 147.792 227.11 148.564 227.614C149.793 228.415 149.73 229.372 148.404 230.459Z" fill="#CC3605"/>
<path d="M140.584 224.763C141.779 225.931 142.132 226.96 140.556 227.643C139.724 228.004 138.805 227.778 138.514 226.837C138.054 225.352 138.853 224.679 140.584 224.763Z" fill="#CC3605"/>
<path d="M130.013 344.009C129.313 342.362 128.279 340.559 130.784 339.576C131.777 339.186 132.716 340.01 133.108 340.931C134.134 343.335 132.366 343.641 130.331 343.964C129.983 343.985 130.003 344.001 130.013 344.009Z" fill="#CC3605"/>
<path d="M126.127 332.06C127.185 334.242 126.091 335.1 124.42 335.455C123.514 335.647 122.586 335.06 122.624 334.186C122.711 332.194 123.755 331.141 126.127 332.06Z" fill="#CC3605"/>
<path d="M133.121 319.102C134.072 321.023 133.68 322.247 131.773 322.568C130.823 322.729 130.231 321.996 130.24 321.094C130.257 319.409 130.775 318.144 133.121 319.102Z" fill="#CC3605"/>
<path d="M141.503 319.596C141.817 321.427 141.402 322.653 139.588 322.343C138.489 322.154 138.02 321.048 138.383 320.003C138.951 318.367 140.013 318.03 141.503 319.596Z" fill="#CC3605"/>
<path d="M125.812 326.675C123.972 326.402 122.917 325.705 123.963 324.045C124.55 323.113 125.697 322.938 126.575 323.612C128.074 324.764 127.593 325.814 125.812 326.675Z" fill="#CC3605"/>
<path d="M145.769 333.524C147.17 334.965 147.03 336.092 145.363 336.662C144.905 336.818 143.857 336.438 143.689 336.044C142.998 334.425 143.836 333.597 145.769 333.524Z" fill="#CC3605"/>
<path d="M141.005 342.996C139.587 342.795 137.827 343.076 137.578 340.996C137.464 340.044 138.199 339.414 139.098 339.416C141.059 339.42 140.831 341.002 140.982 342.645C140.992 343.01 141 343 141.005 342.996Z" fill="#CC3605"/>
<path d="M143.57 327.996C144.149 326.498 145.027 325.834 146.202 326.759C147.066 327.438 147.076 328.575 146.195 329.244C145.035 330.126 144.126 329.531 143.57 327.996Z" fill="#CC3605"/>
<path d="M184.004 324.999C183.357 324.896 182.665 324.902 182.066 324.67C180.558 324.086 180.085 323.002 180.882 321.53C181.405 320.563 182.252 320.001 183.326 320.484C185.293 321.37 184.382 322.934 184.041 324.668C183.997 325.007 184 325 184.004 324.999Z" fill="#CC3605"/>
<path d="M165.917 308.616C167.094 307.135 168.3 306.686 169.385 308.064C170.072 308.935 169.82 310.124 168.721 310.537C167.287 311.075 165.644 311.449 165.917 308.616Z" fill="#CC3605"/>
<path d="M174.388 301.532C174.547 304.128 173.152 304.072 171.605 303.486C170.794 303.179 170.264 302.352 170.723 301.538C171.674 299.849 172.947 299.94 174.388 301.532Z" fill="#CC3605"/>
<path d="M188.882 307.814C189.803 309.97 188.46 310.328 187.085 310.424C186.168 310.488 185.45 309.819 185.649 308.863C186.012 307.118 187.229 307.001 188.882 307.814Z" fill="#CC3605"/>
<path d="M176.585 323.132C175.845 325.148 174.686 325.203 173.553 323.976C172.985 323.361 173.05 322.313 173.839 321.772C175.136 320.882 175.969 321.625 176.585 323.132Z" fill="#CC3605"/>
<path d="M180.332 300.336C181.947 300.197 183.438 300.144 182.965 302.122C182.735 303.086 181.702 303.743 180.698 303.377C179.183 302.824 178.823 301.753 180.332 300.336Z" fill="#CC3605"/>
<path d="M169.574 317.75C168.402 319.052 167.442 318.842 166.77 317.623C166.318 316.802 166.65 315.963 167.526 315.695C168.991 315.247 169.525 316.178 169.574 317.75Z" fill="#CC3605"/>
<path d="M186.854 315.073C188.398 314.247 189.326 314.561 189.399 316.103C189.442 316.998 188.756 317.627 187.859 317.61C186.183 317.579 186.111 316.562 186.854 315.073Z" fill="#CC3605"/>
<path d="M81.0013 319.004C81.0788 318.355 81.0737 317.679 81.248 317.053C81.6077 315.762 82.0863 314.439 83.7243 314.418C84.8555 314.403 85.5779 315.18 85.6241 316.283C85.7051 318.218 84.3554 318.755 82.7413 318.918C82.4146 318.951 82.0843 318.947 81.3741 318.979C80.9925 318.997 81 319 81.0013 319.004Z" fill="#CC3605"/>
<path d="M92.0259 322.749C89.9964 322.025 89.9265 320.897 91.1551 319.782C92.1215 318.905 93.4444 318.983 94.073 320.155C94.9402 321.773 93.8271 322.484 92.0259 322.749Z" fill="#CC3605"/>
<path d="M93.8861 301.909C92.9342 299.982 93.314 298.749 95.236 298.434C96.1807 298.28 96.7904 299.018 96.7759 299.92C96.7491 301.594 96.2471 302.891 93.8861 301.909Z" fill="#CC3605"/>
<path d="M82.5576 310.349C80.5475 310.362 79.4558 309.613 79.9275 307.7C80.1427 306.828 80.9353 306.283 81.8161 306.78C83.1849 307.552 84.2857 308.557 82.5576 310.349Z" fill="#CC3605"/>
<path d="M85.1865 299.328C87.0551 299.585 88.0696 300.309 87.0353 301.96C86.4469 302.898 85.2943 303.058 84.4178 302.385C82.9154 301.231 83.3827 300.182 85.1865 299.328Z" fill="#CC3605"/>
<path d="M101.721 316.054C101.188 317.75 100.221 318.146 98.9936 317.399C98.1228 316.87 98.1967 315.873 98.7738 315.242C99.8861 314.027 101.025 313.859 101.721 316.054Z" fill="#CC3605"/>
<path d="M102.055 309.723C99.8743 309.027 100.005 307.883 101.225 306.761C101.852 306.183 102.861 306.122 103.392 306.988C104.144 308.214 103.759 309.187 102.055 309.723Z" fill="#CC3605"/>
<path d="M84.1403 259.716C84.8701 261.865 83.9536 262.69 82.1476 262.623C81.2758 262.591 80.5587 261.935 80.6827 261.047C80.9612 259.053 82.3302 258.969 84.1403 259.716Z" fill="#CC3605"/>
<path d="M95.7302 250.665C95.7176 248.279 96.9079 247.914 98.5911 248.662C99.3815 249.013 99.9119 249.878 99.4881 250.681C98.5086 252.537 97.173 251.983 95.7302 250.665Z" fill="#CC3605"/>
<path d="M106.567 259.644C105.231 261.051 104.115 261.122 103.398 259.492C103.044 258.688 103.351 257.808 104.216 257.499C105.834 256.921 106.673 257.622 106.567 259.644Z" fill="#CC3605"/>
<path d="M93.4232 269.517C95.0033 271.011 94.638 272.063 93.0078 272.624C91.9711 272.98 90.8552 272.549 90.6693 271.429C90.3681 269.614 91.5885 269.2 93.4232 269.517Z" fill="#CC3605"/>
<path d="M83.0027 270.005C83.2002 268.456 82.6636 266.397 85.2199 266.381C85.685 266.378 86.4865 267.086 86.5657 267.56C86.937 269.782 85.278 269.85 83.364 269.98C82.9886 269.995 83.0007 269.999 83.0027 270.005Z" fill="#CC3605"/>
<path d="M86.7522 254.484C84.8075 254.408 83.9842 253.569 84.6755 251.954C84.8419 251.565 85.8943 251.2 86.3569 251.357C88.0257 251.927 88.1661 253.05 86.7522 254.484Z" fill="#CC3602"/>
<path d="M101.327 266.865C102.049 268.759 101.526 269.79 99.7228 269.682C99.2541 269.654 98.4456 268.87 98.4538 268.446C98.4859 266.778 99.4164 266.062 101.327 266.865Z" fill="#CC3602"/>
<path d="M187.583 274.916C186.709 276.777 185.508 277.318 183.98 276.34C183.152 275.81 183.247 274.812 183.838 274.231C185.145 272.947 186.555 272.377 187.583 274.916Z" fill="#CC3605"/>
<path d="M194.557 263.797C192.499 263.643 191.832 262.759 192.809 261.201C193.383 260.286 194.464 259.936 195.349 260.721C196.614 261.845 196.533 262.973 194.557 263.797Z" fill="#CC3605"/>
<path d="M173.015 261.937C174.925 260.984 175.812 261.58 175.716 263.364C175.656 264.463 174.828 265.307 173.759 265.118C171.889 264.786 172.056 263.497 173.015 261.937Z" fill="#CC3605"/>
<path d="M178.006 269.931C178.933 271.483 179.144 272.791 177.255 273.11C176.2 273.288 175.35 272.437 175.289 271.346C175.189 269.548 176.112 268.992 178.006 269.931Z" fill="#CC3605"/>
<path d="M177.394 255.291C178.51 254.021 179.607 253.807 180.368 255.091C180.975 256.114 180.347 257.087 179.318 257.423C177.789 257.924 177.249 257.002 177.394 255.291Z" fill="#CC3605"/>
<path d="M194.777 269.992C194.312 271.702 193.383 272.055 192.236 271.209C191.297 270.516 191.34 269.491 192.242 268.8C193.386 267.923 194.304 268.291 194.777 269.992Z" fill="#CC3605"/>
<path d="M187.938 253.883C188.868 255.79 188.097 256.615 186.485 256.593C185.611 256.581 185.114 255.758 185.259 254.853C185.498 253.366 186.411 253.068 187.938 253.883Z" fill="#CC3605"/>
</svg>
